<?xml version="1.0" encoding="UTF-8" standalone="no"?>
<!-- Created with Inkscape (http://www.inkscape.org/) -->

<svg
   xmlns:dc="http://purl.org/dc/elements/1.1/"
   xmlns:cc="http://creativecommons.org/ns#"
   xmlns:rdf="http://www.w3.org/1999/02/22-rdf-syntax-ns#"
   xmlns:svg="http://www.w3.org/2000/svg"
   xmlns="http://www.w3.org/2000/svg"
   xmlns:sodipodi="http://sodipodi.sourceforge.net/DTD/sodipodi-0.dtd"
   xmlns:inkscape="http://www.inkscape.org/namespaces/inkscape"
   width="34.924999mm"
   height="38.099998mm"
   viewBox="0 0 34.924999 38.099998"
   version="1.1"
   id="svg8"
   inkscape:version="0.92.1 r15371"
   sodipodi:docname="habra_logo.svg">
  <defs
     id="defs2" />
  <sodipodi:namedview
     id="base"
     pagecolor="#ffffff"
     bordercolor="#666666"
     borderopacity="1.0"
     inkscape:pageopacity="0.0"
     inkscape:pageshadow="2"
     inkscape:zoom="0.70710678"
     inkscape:cx="6.1909329"
     inkscape:cy="424.03218"
     inkscape:document-units="mm"
     inkscape:current-layer="layer1"
     showgrid="true"
     inkscape:window-width="2560"
     inkscape:window-height="1377"
     inkscape:window-x="-8"
     inkscape:window-y="-8"
     inkscape:window-maximized="1">
    <inkscape:grid
       type="xygrid"
       id="grid4328" />
  </sodipodi:namedview>
  <metadata
     id="metadata5">
    <rdf:RDF>
      <cc:Work
         rdf:about="">
        <dc:format>image/svg+xml</dc:format>
        <dc:type
           rdf:resource="http://purl.org/dc/dcmitype/StillImage" />
        <dc:title></dc:title>
      </cc:Work>
    </rdf:RDF>
  </metadata>
  <g
     inkscape:label="Layer 1"
     inkscape:groupmode="layer"
     id="layer1"
     transform="translate(0,-258.9)">
    <path
       id="rect4683"
       style="opacity:1;fill:#000000;fill-opacity:1;stroke:none;stroke-width:0.02645835;stroke-linecap:square;stroke-linejoin:round;stroke-miterlimit:4;stroke-dasharray:none;stroke-dashoffset:0;stroke-opacity:1;paint-order:normal"
       d="m 19.049909,284.29988 v 3.17508 h -3.175083 v -3.17508 z m 0,-3.17497 v 3.17497 h -3.175083 v -3.17497 z m -3.175083,0 v 3.17497 h -3.174963 v -3.17497 z m -3.175083,0 v 3.17497 H 9.5247798 v -3.17497 z m -3.1750832,-3.17496 v 3.17496 H 6.3496969 v -3.17496 z m 3.1750832,0 v 3.17496 H 9.5247798 v -3.17496 z m 3.175083,0 v 3.17496 h -3.174963 v -3.17496 z m 3.175083,0 v 3.17496 h -3.175083 v -3.17496 z m 3.174962,0 v 3.17496 h -3.174962 v -3.17496 z m 3.175083,0 v 3.17496 h -3.174963 v -3.17496 z m -3.175083,-3.17508 v 3.17508 h -3.174962 v -3.17508 z m -9.525128,-9.52501 v 3.17508 H 9.5247798 v -3.17508 z m 6.350166,9.52501 v 3.17508 h -3.175083 v -3.17508 z m -3.175083,0 v 3.17508 h -3.174963 v -3.17508 z M 9.5246598,271.5999 v 3.17497 H 6.3496969 v -3.17497 z m 0,3.17497 v 3.17508 H 6.3496969 v -3.17508 z m 3.1750832,0 v 3.17508 H 9.5247798 v -3.17508 z m -3.1750832,-6.34993 v 3.17496 H 6.3496969 v -3.17496 z m 3.1750832,3.17496 v 3.17497 H 9.5247798 v -3.17497 z m 0,-3.17496 v 3.17496 H 9.5247798 v -3.17496 z m 3.175083,0 v 3.17496 h -3.174963 v -3.17496 z m 0,3.17496 v 3.17497 h -3.174963 v -3.17497 z m 3.175083,0 v 3.17497 h -3.175083 v -3.17497 z m -3.175083,-6.35004 v 3.17508 h -3.174963 v -3.17508 z m 3.175083,3.17508 v 3.17496 h -3.175083 v -3.17496 z m 0,-3.17508 v 3.17508 h -3.175083 v -3.17508 z m -3.175083,-3.17497 v 3.17497 h -3.174963 v -3.17497 z m -3.175083,0 v 3.17497 H 9.5247798 v -3.17497 z m -6.3496861,-3.17496 v 3.17496 H 3.174974 v -3.17496 z m 3.1746029,3.17496 v 3.17497 H 6.3496969 v -3.17497 z m 0,3.17497 v 3.17508 H 6.3496969 v -3.17508 z m -3.1749629,3.17508 v 3.17496 H 3.174614 v -3.17496 z M 3.174974,265.24986 v 3.17508 H 9.8999989e-6 v -3.17508 z m 3.1747229,9.52501 v 3.17508 H 3.174614 v -3.17508 z M 3.174974,271.5999 v 3.17497 H 9.8999989e-6 v -3.17497 z m 0,9.52501 v 3.17497 H 9.8999989e-6 v -3.17497 z m 3.1750829,-3.17496 v 3.17496 H 3.174974 v -3.17496 z m 3.1746029,3.17496 v 3.17497 H 6.3496969 v -3.17497 z m 0,12.69997 v 3.17497 H 6.3496969 v -3.17497 z m 3.1754432,-3.17496 v 3.17496 H 9.5251398 v -3.17496 z m -3.6e-4,-3.17496 v 3.17496 H 9.5247798 v -3.17496 z m 0,-3.17508 v 3.17508 H 9.5247798 v -3.17508 z m 3.175083,0 v 3.17508 h -3.174963 v -3.17508 z m 3.175083,3.17496 v 3.17508 h -3.175083 v -3.17508 z m 6.350045,3.17508 v 3.17496 h -3.174963 v -3.17496 z m -3.175083,-3.17496 v 3.17496 h -3.174962 v -3.17496 z m 0,-3.17508 v 3.17508 h -3.174962 v -3.17508 z m 0,-3.17497 v 3.17497 h -3.174962 v -3.17497 z m 3.175083,0 v 3.17497 h -3.174963 v -3.17497 z m 3.174723,3.17497 v 3.17508 h -3.175083 v -3.17508 z m 3.6e-4,-3.17497 v 3.17497 h -3.175083 v -3.17497 z m 6.349686,-3.17496 v 3.17496 H 31.74976 v -3.17496 z m -3.174963,3.17496 v 3.17497 h -3.175083 v -3.17497 z m -3.175083,-3.17496 v 3.17496 h -3.175083 v -3.17496 z m -3.174723,-3.17508 v 3.17508 H 22.22499 v -3.17508 z m -3.175083,-6.34993 v 3.17496 h -3.174962 v -3.17496 z m 0,3.17496 v 3.17497 h -3.174962 v -3.17497 z m 3.175083,0 v 3.17497 h -3.174963 v -3.17497 z m 3.175083,0 v 3.17497 h -3.175083 v -3.17497 z m 3.174723,0 v 3.17497 h -3.175083 v -3.17497 z m -9.524889,-6.35004 v 3.17508 h -3.174962 v -3.17508 z m -3.174962,-3.17497 v 3.17497 h -3.175083 v -3.17497 z m 3.174962,-3.17496 v 3.17496 h -3.174962 v -3.17496 z m 3.175083,9.52501 v 3.17496 h -3.174963 v -3.17496 z m 3.174723,0 v 3.17496 h -3.175083 v -3.17496 z m -3.174723,-3.17508 v 3.17508 h -3.174963 v -3.17508 z m 0,-3.17497 v 3.17497 h -3.174963 v -3.17497 z m 3.175083,0 v 3.17497 h -3.175083 v -3.17497 z m 3.175083,-3.17496 v 3.17496 h -3.175083 v -3.17496 z"
       inkscape:connector-curvature="0" />
  </g>
</svg>
