<?xml version="1.0" encoding="UTF-8" standalone="no"?>
<!-- Created with Inkscape (http://www.inkscape.org/) -->

<svg
   xmlns:dc="http://purl.org/dc/elements/1.1/"
   xmlns:cc="http://creativecommons.org/ns#"
   xmlns:rdf="http://www.w3.org/1999/02/22-rdf-syntax-ns#"
   xmlns:svg="http://www.w3.org/2000/svg"
   xmlns="http://www.w3.org/2000/svg"
   xmlns:sodipodi="http://sodipodi.sourceforge.net/DTD/sodipodi-0.dtd"
   xmlns:inkscape="http://www.inkscape.org/namespaces/inkscape"
   width="1024"
   height="1024"
   viewBox="0 0 270.93333 270.93333"
   version="1.1"
   id="svg8"
   inkscape:version="0.92.1 r15371"
   sodipodi:docname="logo.svg">
  <defs
     id="defs2" />
  <sodipodi:namedview
     id="base"
     pagecolor="#ffffff"
     bordercolor="#666666"
     borderopacity="1.0"
     inkscape:pageopacity="0.0"
     inkscape:pageshadow="2"
     inkscape:zoom="0.5"
     inkscape:cx="275.57074"
     inkscape:cy="648.07614"
     inkscape:document-units="px"
     inkscape:current-layer="layer1"
     showgrid="false"
     inkscape:window-width="1920"
     inkscape:window-height="1017"
     inkscape:window-x="-8"
     inkscape:window-y="-8"
     inkscape:window-maximized="1"
     units="px" />
  <metadata
     id="metadata5">
    <rdf:RDF>
      <cc:Work
         rdf:about="">
        <dc:format>image/svg+xml</dc:format>
        <dc:type
           rdf:resource="http://purl.org/dc/dcmitype/StillImage" />
        <dc:title></dc:title>
      </cc:Work>
    </rdf:RDF>
  </metadata>
  <g
     inkscape:groupmode="layer"
     id="layer2"
     inkscape:label="Layer 2">
    <path
       style="opacity:1;fill:#2979ff;fill-opacity:1;stroke:none;stroke-width:0.13229164;stroke-linecap:round;stroke-linejoin:miter;stroke-miterlimit:4;stroke-dasharray:none"
       d="m 138.34536,5.3367797 c -10.25663,-0.027715 -20.57298,0.020083 -29.62024,0.1466428 -4.52363,0.06328 -8.730042,0.1463081 -12.453023,0.2495035 -3.722978,0.1031951 -6.962747,0.2262911 -9.552873,0.370299 -3.36788,0.1872505 -6.562684,0.4180883 -9.598768,0.6957616 -3.036081,0.2776735 -5.913319,0.6022033 -8.646116,0.9779696 -2.732796,0.3757664 -5.321424,0.8029134 -7.779448,1.2844425 -2.458022,0.4815289 -4.785413,1.0175803 -6.997177,1.6125423 -1.105882,0.297481 -2.182806,0.609548 -3.232469,0.936825 -1.049663,0.327277 -2.072467,0.670049 -3.069473,1.028081 -0.997009,0.358033 -1.968585,0.731702 -2.916502,1.121448 -0.947917,0.389746 -1.871687,0.795559 -2.77408,1.217978 -0.902391,0.422419 -1.783359,0.861097 -2.643788,1.317147 -0.860429,0.456049 -1.700435,0.929368 -2.522464,1.420007 -0.82203,0.49064 -1.62608,0.99879 -2.413276,1.524979 -0.787195,0.526188 -1.557653,1.070418 -2.313577,1.633114 -0.680002,0.506181 -1.582263,1.27744 -2.583655,2.191728 -1.001392,0.914289 -2.101732,1.971756 -3.179191,3.048902 -1.077462,1.077145 -2.131731,2.17442 -3.039936,3.169171 -0.908205,0.994751 -1.670672,1.887008 -2.164299,2.554114 -0.564978,0.763534 -1.111063,1.540823 -1.638916,2.334152 -0.527853,0.793326 -1.037454,1.602699 -1.529199,2.429626 -0.491744,0.826926 -0.965464,1.671323 -1.422117,2.535652 -0.456654,0.864328 -0.896149,1.748276 -1.31873,2.65381 -0.42258,0.905537 -0.828453,1.832499 -1.217978,2.783047 -0.389525,0.950548 -0.762905,1.924522 -1.120392,2.923886 -0.357487,0.999366 -0.698978,2.024347 -1.025444,3.076333 -0.326467,1.051985 -0.637724,2.131443 -0.934188,3.239853 -0.592927,2.216822 -1.1266632,4.55029 -1.6056849,7.015639 C 8.5533346,63.294784 8.1290826,65.891994 7.7558263,68.636312 7.38257,71.380628 7.0603462,74.271964 6.7847141,77.325681 6.5090821,80.3794 6.2798483,83.595246 6.0936999,86.988802 5.9667692,89.3028 5.8560508,92.264268 5.7608526,95.710877 c -0.095198,3.44661 -0.1744332,7.378213 -0.2378986,11.633833 -0.1269308,8.51123 -0.1904245,18.31704 -0.1904245,28.12269 0,9.80565 0.063494,19.61146 0.1904245,28.12269 0.063465,4.25562 0.1427005,8.18775 0.2378986,11.63436 0.095198,3.44661 0.2059166,6.40755 0.3328473,8.72155 0.1862248,3.39495 0.4157717,6.61466 0.6925966,9.67314 0.276825,3.05848 0.6012721,5.95552 0.9763873,8.70625 0.3751152,2.75073 0.8012367,5.35522 1.2823324,7.82692 0.4810954,2.4717 1.0172488,4.8106 1.6120148,7.03199 0.297383,1.1107 0.609055,2.19215 0.936297,3.24566 0.327243,1.05351 0.670018,2.07906 1.028082,3.07897 0.358063,0.9999 0.731601,1.97399 1.121447,2.92388 0.389846,0.9499 0.795917,1.87589 1.218506,2.77936 0.422589,0.90347 0.861908,1.78473 1.318202,2.64537 0.456293,0.86064 0.929575,1.70054 1.420535,2.52194 0.490959,0.8214 0.999447,1.62435 1.526033,2.41011 0.526587,0.78575 1.070995,1.55461 1.63417,2.3083 0.482367,0.64555 1.116547,1.413 1.838836,2.23709 0.722289,0.82409 1.532634,1.70485 2.367911,2.57522 0.835274,0.87036 1.695333,1.7307 2.516663,2.51508 0.821327,0.78437 1.604118,1.49268 2.284565,2.0588 1.2312,1.02433 2.513906,1.99423 3.853328,2.91228 1.339421,0.91805 2.735492,1.78415 4.193031,2.59948 1.457539,0.81533 2.976718,1.57999 4.562276,2.29617 1.585556,0.71618 3.237587,1.38387 4.96106,2.00447 1.723469,0.62059 3.518098,1.19421 5.389383,1.72279 1.871282,0.52857 3.819306,1.01207 5.848298,1.45218 2.028996,0.44012 4.1391,0.83691 6.335705,1.19213 2.196601,0.35522 4.479589,0.66874 6.853698,0.94263 2.086549,0.24072 4.514959,0.46628 7.20079,0.67203 2.68583,0.20574 5.629013,0.39183 8.745812,0.55386 3.116801,0.16204 6.407096,0.29976 9.786554,0.40934 3.379457,0.10957 6.848147,0.19112 10.321957,0.23947 6.06971,0.0845 22.04184,0.0587 37.27098,-0.0211 7.61457,-0.0399 15.04315,-0.0929 20.95566,-0.15297 5.91252,-0.06 10.30883,-0.12682 11.85802,-0.19306 3.86644,-0.16536 7.16485,-0.33987 10.16001,-0.54068 2.99517,-0.20082 5.68708,-0.42823 8.34018,-0.69998 3.20212,-0.328 6.23747,-0.71741 9.12033,-1.17473 1.44143,-0.22866 2.84467,-0.47415 4.21149,-0.73743 1.36682,-0.26328 2.69743,-0.54457 3.99311,-0.84399 1.29569,-0.29942 2.55673,-0.61714 3.78476,-0.95423 1.22802,-0.33709 2.42311,-0.69347 3.58694,-1.06975 1.16383,-0.37629 2.29657,-0.77249 3.39968,-1.1895 1.10312,-0.417 2.17658,-0.85473 3.22245,-1.31398 1.04587,-0.45925 2.06418,-0.93967 3.05629,-1.44269 0.9921,-0.50302 1.95781,-1.02836 2.89962,-1.57667 0.94181,-0.54831 1.85958,-1.11974 2.75456,-1.71488 0.89499,-0.59513 1.76736,-1.21435 2.619,-1.85782 0.85163,-0.64348 1.68222,-1.31112 2.49398,-2.00447 0.81176,-0.69335 1.60469,-1.41217 2.38004,-2.15692 0.77535,-0.74473 1.53318,-1.51538 2.2756,-2.31305 0.74242,-0.79766 1.46927,-1.62235 2.18223,-2.47446 1.02288,-1.22249 1.99175,-2.49767 2.90859,-3.83012 0.91685,-1.33244 1.78189,-2.72215 2.59632,-4.17457 0.81442,-1.45241 1.57844,-2.96721 2.29406,-4.54961 0.71561,-1.5824 1.38248,-3.23234 2.00288,-4.95473 0.62041,-1.72239 1.19451,-3.51751 1.72332,-5.38991 0.52881,-1.8724 1.01242,-3.82221 1.45324,-5.85463 0.44082,-2.03243 0.83886,-4.14749 1.19529,-6.34995 0.35644,-2.20246 0.6712,-4.49229 0.94685,-6.8748 0.38875,-3.36001 0.70071,-6.56067 0.94949,-10.08511 0.24878,-3.52444 0.43446,-7.3727 0.5718,-12.02839 0.13733,-4.6557 0.22622,-10.11859 0.28063,-16.87235 0.0544,-6.75376 0.0744,-14.79835 0.0744,-24.61699 0,-8.59526 -0.0103,-15.58037 -0.0401,-21.40772 -0.0298,-5.82735 -0.0794,-10.49666 -0.15666,-14.461711 -0.0773,-3.965047 -0.1825,-7.225525 -0.32494,-10.233867 -0.14244,-3.008341 -0.32178,-5.764837 -0.54701,-8.722074 -0.22194,-2.914102 -0.48115,-5.685149 -0.78121,-8.325928 -0.30007,-2.640782 -0.64111,-5.151128 -1.0265,-7.543132 -0.3854,-2.392004 -0.81548,-4.665883 -1.29341,-6.833657 -0.47793,-2.167771 -1.00375,-4.229415 -1.58142,-6.197498 -0.57767,-1.968085 -1.20697,-3.842781 -1.89159,-5.635722 -0.68461,-1.792941 -1.42461,-3.504395 -2.22337,-5.146736 -0.79877,-1.642342 -1.65616,-3.215314 -2.57627,-4.731601 -0.92012,-1.516289 -1.90265,-2.975535 -2.95132,-4.390313 -0.4984,-0.6724 -1.26465,-1.56988 -2.17538,-2.568358 -0.91072,-0.998476 -1.96585,-2.098084 -3.04204,-3.1755 -1.07619,-1.077413 -2.17385,-2.132831 -3.16864,-3.042044 -0.9948,-0.909214 -1.88705,-1.672536 -2.55359,-2.166409 -1.44635,-1.071665 -2.94797,-2.076758 -4.51533,-3.018835 -1.56735,-0.942076 -3.20042,-1.82118 -4.90936,-2.639568 -1.70895,-0.818388 -3.49399,-1.576054 -5.36512,-2.276654 -1.87113,-0.7006 -3.82817,-1.344018 -5.88206,-1.93273 -2.05391,-0.588702 -4.20455,-1.1229499 -6.4618,-1.6056747 C 209.75761,8.9289338 207.39388,8.4977209 204.91271,8.1150838 202.43153,7.7324467 199.8331,7.398662 197.10741,7.1102121 194.38172,6.8217569 191.52857,6.5787384 188.53778,6.3785759 186.18653,6.2212154 183.15591,6.0809961 179.61209,5.9581649 176.06828,5.8353336 172.0111,5.7301291 167.60691,5.6427248 158.79853,5.4679163 148.602,5.3644946 138.34536,5.3367797 Z"
       id="path4378"
       inkscape:connector-curvature="0" />
  </g>
  <g
     inkscape:label="Layer 1"
     inkscape:groupmode="layer"
     id="layer1"
     transform="translate(0,-26.066725)">
    <path
       style="fill:#ffffff;stroke:none;stroke-width:0.0352778"
       inkscape:connector-curvature="0"
       d="m 39.864801,98.429379 c -0.749842,1.095943 -0.749842,1.557428 0.288194,4.210801 6.114276,15.51643 49.260364,121.93953 49.721796,122.45866 0.40358,0.57681 3.57629,0.74989 12.228549,0.74989 10.38277,0 11.76712,-0.11538 12.51702,-1.0383 0.46154,-0.51897 5.30674,-12.17086 10.78651,-25.78382 5.47976,-13.6706 10.03667,-24.8609 10.152,-24.97623 0.0579,-0.0575 4.61454,10.95953 10.09436,24.51479 5.42207,13.55527 10.26738,25.2647 10.72881,26.01454 0.80754,1.26902 1.03831,1.26902 12.57466,1.26902 8.70995,0 11.8825,-0.17281 12.34394,-0.74989 0.63451,-0.74984 50.29861,-124.70829 50.29861,-125.515826 0,-0.288194 -0.40358,-0.980611 -0.92292,-1.442044 -0.74984,-0.807534 -2.76871,-0.922919 -13.38219,-0.922919 -6.86417,0 -12.80537,0.230771 -13.20916,0.46154 -0.40358,0.23077 -8.47924,19.727229 -17.93909,43.319169 l -17.24689,42.85762 -2.94178,-7.15253 c -1.55737,-3.92238 -9.28677,-23.0728 -17.13149,-42.56927 -7.84474,-19.49646 -14.53589,-35.820478 -14.82429,-36.224219 -0.46154,-0.518964 -3.86465,-0.692202 -13.49752,-0.692202 -10.9019,0 -12.97845,0.115384 -13.72834,0.922918 -0.51897,0.46154 -0.92287,1.153636 -0.92287,1.442044 0,0.346155 3.40321,9.056059 7.55632,19.323439 l 7.55632,18.80432 -9.40216,23.01506 c -5.13366,12.69004 -9.40215,22.95742 -9.45985,22.89973 -0.11538,-0.11539 -7.72934,-18.97734 -17.016112,-41.99246 -9.229134,-23.01506 -17.189247,-42.39619 -17.65068,-43.146031 -0.807534,-1.26902 -0.980611,-1.26902 -13.785981,-1.26902 -12.516961,0 -12.920755,0.05742 -13.785981,1.211327 z"
       id="path4321" />
  </g>
</svg>
