<?xml version="1.0" encoding="UTF-8" standalone="no"?>
<svg
   xmlns="http://www.w3.org/2000/svg"
   id="svg8"
   version="1.1"
   viewBox="0 0 270.93333 270.93333"
   height="1024"
   width="1024">
  <defs
     id="defs2" />
  <g
     id="layer2">
    <path
       id="path4378"
       d="m 138.52657,0.00790846 c -10.68179,-0.028858 -21.42578,0.020911 -30.84808,0.1526895 -4.71114,0.065889 -9.09192,0.152341 -12.96923,0.2597916 -3.877308,0.1074503 -7.251374,0.235622 -9.948868,0.385568 C 81.252905,1.0009292 77.925667,1.2412854 74.76373,1.5304084 71.601795,1.8195315 68.605287,2.157443 65.759209,2.5487038 62.913131,2.9399646 60.217197,3.3847247 57.657282,3.8861092 55.097368,4.3874936 52.6735,4.9456486 50.370053,5.5651434 c -1.151724,0.3097474 -2.27329,0.6346822 -3.366464,0.9754542 -1.093174,0.3407721 -2.158376,0.697678 -3.196711,1.0704731 -1.038338,0.3727962 -2.050188,0.7618732 -3.037399,1.1676901 -0.98721,0.4058168 -1.949273,0.8283632 -2.889073,1.2682002 -0.939797,0.439837 -1.857284,0.896604 -2.75338,1.371459 -0.896096,0.474853 -1.770923,0.967689 -2.627027,1.478559 -0.856105,0.510872 -1.693485,1.039975 -2.513313,1.587861 -0.819826,0.547885 -1.622222,1.114556 -2.409481,1.700454 -0.70819,0.527053 -1.647852,1.330114 -2.690754,2.282102 -1.042903,0.951989 -2.188855,2.05306 -3.310977,3.174621 -1.122126,1.12156 -2.220097,2.264081 -3.16595,3.299849 -0.945852,1.035769 -1.739926,1.964818 -2.254015,2.659431 -0.588398,0.795018 -1.157119,1.604358 -1.706853,2.430399 -0.549734,0.826038 -1.08046,1.668785 -1.592589,2.52981 -0.512128,0.861023 -1.005485,1.740238 -1.481067,2.640207 -0.475584,0.899968 -0.933297,1.820365 -1.373395,2.763238 -0.4400966,0.942876 -0.8627946,1.908061 -1.2684666,2.897804 -0.405672,0.989743 -0.794529,2.003878 -1.166835,3.04445 -0.372306,1.040574 -0.727953,2.107819 -1.067951,3.203183 -0.34,1.095363 -0.66416,2.219331 -0.972913,3.373446 -0.617506,2.308231 -1.1733665,4.737917 -1.672245,7.304923 C 3.3543162,60.355765 2.9124778,63.060069 2.523749,65.917546 2.1350203,68.775022 1.7994394,71.78558 1.5123816,74.965215 1.2253239,78.144851 0.9865878,81.4933 0.792723,85.026787 0.6605307,87.436201 0.5452227,90.519782 0.4460783,94.108509 0.3469343,97.697238 0.2644144,101.79096 0.1983182,106.22206 0.0661257,115.08424 0,125.29438 0,135.50436 c 0,10.20998 0.066126,20.42013 0.1983182,29.28231 0.066096,4.4311 0.1486158,8.52536 0.2477601,12.11409 0.099144,3.58873 0.2144524,6.67176 0.3466447,9.08118 0.1939443,3.53494 0.4330066,6.88741 0.7213066,10.072 0.2883002,3.1846 0.6261965,6.20109 1.0168612,9.06525 0.3906647,2.86415 0.8344501,5.57604 1.3354885,8.14966 0.5010381,2.57361 1.0594161,5.00896 1.6788371,7.32194 0.30971,1.1565 0.634302,2.28255 0.975109,3.3795 0.340808,1.09695 0.697792,2.16478 1.070699,3.20592 0.372906,1.04113 0.761928,2.05539 1.167934,3.04445 0.406006,0.98907 0.82891,1.95324 1.2690156,2.89396 0.440107,0.94073 0.897637,1.85833 1.372845,2.75445 0.475208,0.89613 0.968109,1.77066 1.47942,2.62593 0.511311,0.85527 1.040877,1.69133 1.589292,2.50949 0.548415,0.81815 1.11539,1.61872 1.70191,2.40348 0.502363,0.67217 1.162831,1.47127 1.915061,2.32934 0.75223,0.85807 1.596166,1.77515 2.466067,2.6814 0.869899,0.90625 1.765609,1.80207 2.620986,2.61879 0.855373,0.81672 1.670613,1.55423 2.379266,2.1437 1.282237,1.06656 2.618114,2.07646 4.013059,3.03236 1.394944,0.95591 2.848886,1.85772 4.366843,2.70667 1.517958,0.84895 3.100111,1.64514 4.751395,2.39085 1.651282,0.74571 3.371794,1.44093 5.166709,2.08712 1.794912,0.64618 3.663933,1.24345 5.612788,1.79383 1.948852,0.55036 3.977626,1.0538 6.090726,1.51206 2.113103,0.45827 4.310677,0.87142 6.598337,1.24129 2.287656,0.36986 4.66528,0.69631 7.137802,0.98149 2.173042,0.25065 4.702116,0.48551 7.499282,0.69974 2.797165,0.21423 5.862351,0.40799 9.10835,0.5767 3.246001,0.16872 6.672687,0.31212 10.192228,0.42622 3.51955,0.11409 7.13203,0.199 10.74983,0.24935 6.32132,0.088 22.95554,0.0611 38.81597,-0.022 7.93021,-0.0415 15.66673,-0.0967 21.82433,-0.15928 6.15761,-0.0625 10.73616,-0.13205 12.34956,-0.20102 4.02672,-0.17218 7.46186,-0.35389 10.58117,-0.56298 3.11933,-0.2091 5.92283,-0.44588 8.68591,-0.72884 3.33485,-0.34152 6.49603,-0.74699 9.49839,-1.22317 1.50118,-0.23809 2.96259,-0.4937 4.38607,-0.76784 1.42347,-0.27413 2.80924,-0.56702 4.15863,-0.87879 1.3494,-0.31176 2.66271,-0.64258 3.94165,-0.99357 1.27892,-0.35099 2.52355,-0.72207 3.73563,-1.11386 1.21207,-0.39181 2.39177,-0.80435 3.5406,-1.23855 1.14885,-0.4342 2.26681,-0.88998 3.35603,-1.36816 1.08923,-0.47819 2.14975,-0.97842 3.18298,-1.50218 1.03323,-0.52376 2.03897,-1.07077 3.01982,-1.64168 0.98085,-0.57092 1.93667,-1.16592 2.86875,-1.7856 0.93209,-0.61967 1.84062,-1.26442 2.72756,-1.93442 0.88693,-0.67002 1.75195,-1.36519 2.59736,-2.08712 0.84541,-0.72194 1.67121,-1.4704 2.4787,-2.24586 0.80749,-0.77544 1.59674,-1.57787 2.36993,-2.40843 0.7732,-0.83055 1.53018,-1.68925 2.27269,-2.57649 1.06528,-1.2729 2.07431,-2.60066 3.02916,-3.98805 0.95486,-1.38739 1.85575,-2.8344 2.70394,-4.34671 0.84818,-1.5123 1.64387,-3.08956 2.38916,-4.73721 0.74527,-1.64765 1.43979,-3.36562 2.0859,-5.15903 0.64613,-1.79342 1.24403,-3.66256 1.79476,-5.61216 0.55073,-1.94961 1.05439,-3.97982 1.51348,-6.09604 0.45909,-2.11624 0.87363,-4.31851 1.24484,-6.61179 0.37121,-2.29328 0.69902,-4.67752 0.9861,-7.15828 0.40486,-3.49855 0.72975,-6.83119 0.98885,-10.50096 0.25909,-3.66976 0.45247,-7.6767 0.5955,-12.52437 0.14302,-4.84767 0.2356,-10.53582 0.29226,-17.56807 0.0567,-7.03224 0.0775,-15.40854 0.0775,-25.63205 0,-8.94968 -0.0107,-16.22281 -0.0418,-22.29045 -0.031,-6.06763 -0.0827,-10.92948 -0.16315,-15.058028 -0.0805,-4.128542 -0.19006,-7.523464 -0.33841,-10.655852 -0.14834,-3.132388 -0.33512,-6.002546 -0.56968,-9.081722 -0.23114,-3.034263 -0.5011,-5.919571 -0.8136,-8.669241 -0.31251,-2.749672 -0.66768,-5.363531 -1.06905,-7.854167 -0.40137,-2.490636 -0.84928,-4.858277 -1.34702,-7.115437 -0.49775,-2.257158 -1.04536,-4.403812 -1.64698,-6.453047 -0.60161,-2.049238 -1.257,-4.001235 -1.97,-5.868107 -0.71299,-1.866871 -1.48366,-3.648896 -2.31553,-5.358957 -0.83189,-1.710063 -1.72482,-3.347895 -2.68307,-4.926705 -0.95826,-1.578812 -1.98152,-3.098229 -3.07366,-4.571344 -0.51906,-0.700126 -1.31707,-1.634613 -2.26555,-2.674262 -0.94847,-1.039648 -2.04734,-2.184597 -3.16814,-3.306439 -1.1208,-1.12184 -2.26397,-2.220777 -3.29999,-3.167481 -1.03604,-0.946704 -1.96528,-1.741501 -2.65945,-2.255739 -1.5063,-1.115854 -3.07017,-2.162391 -4.7025,-3.143314 -1.63232,-0.980922 -3.33308,-1.896275 -5.11286,-2.748409 -1.7798,-0.8521331 -3.63883,-1.6410408 -5.58752,-2.3705295 -1.9487,-0.7294887 -3.98686,-1.3994375 -6.12589,-2.0124246 -2.13903,-0.6129767 -4.37882,-1.1692539 -6.72964,-1.6718834 -2.35081,-0.5026293 -4.81252,-0.9516229 -7.39654,-1.3500377 -2.58403,-0.3984148 -5.29018,-0.7459629 -8.12885,-1.0463068 -2.83868,-0.3003494 -5.8101,-0.5533886 -8.92487,-0.7618046 -2.44871,-0.16384924 -5.60496,-0.30985034 -9.29568,-0.43774634 -3.69071,-0.1278962 -7.91607,-0.2374387 -12.50283,-0.3284471 -9.17351,-0.1820165 -19.79271,-0.2897028 -30.47452,-0.3185605 z"
       style="opacity:1;fill:#2979ff;fill-opacity:1;stroke:none;stroke-width:0.13229166;stroke-linecap:round;stroke-linejoin:miter;stroke-miterlimit:4;stroke-dasharray:none" />
  </g>
  <g
     transform="translate(0,-26.066725)"
     id="layer1">
    <path
       id="path4321"
       d="m 39.864801,98.429379 c -0.749842,1.095943 -0.749842,1.557428 0.288194,4.210801 6.114276,15.51643 49.260364,121.93953 49.721796,122.45866 0.40358,0.57681 3.57629,0.74989 12.228549,0.74989 10.38277,0 11.76712,-0.11538 12.51702,-1.0383 0.46154,-0.51897 5.30674,-12.17086 10.78651,-25.78382 5.47976,-13.6706 10.03667,-24.8609 10.152,-24.97623 0.0579,-0.0575 4.61454,10.95953 10.09436,24.51479 5.42207,13.55527 10.26738,25.2647 10.72881,26.01454 0.80754,1.26902 1.03831,1.26902 12.57466,1.26902 8.70995,0 11.8825,-0.17281 12.34394,-0.74989 0.63451,-0.74984 50.29861,-124.70829 50.29861,-125.515826 0,-0.288194 -0.40358,-0.980611 -0.92292,-1.442044 -0.74984,-0.807534 -2.76871,-0.922919 -13.38219,-0.922919 -6.86417,0 -12.80537,0.230771 -13.20916,0.46154 -0.40358,0.23077 -8.47924,19.727229 -17.93909,43.319169 l -17.24689,42.85762 -2.94178,-7.15253 c -1.55737,-3.92238 -9.28677,-23.0728 -17.13149,-42.56927 -7.84474,-19.49646 -14.53589,-35.820478 -14.82429,-36.224219 -0.46154,-0.518964 -3.86465,-0.692202 -13.49752,-0.692202 -10.9019,0 -12.97845,0.115384 -13.72834,0.922918 -0.51897,0.46154 -0.92287,1.153636 -0.92287,1.442044 0,0.346155 3.40321,9.056059 7.55632,19.323439 l 7.55632,18.80432 -9.40216,23.01506 c -5.13366,12.69004 -9.40215,22.95742 -9.45985,22.89973 -0.11538,-0.11539 -7.72934,-18.97734 -17.016112,-41.99246 -9.229134,-23.01506 -17.189247,-42.39619 -17.65068,-43.146031 -0.807534,-1.26902 -0.980611,-1.26902 -13.785981,-1.26902 -12.516961,0 -12.920755,0.05742 -13.785981,1.211327 z"
       style="fill:#ffffff;stroke:none;stroke-width:0.0352778" />
  </g>
</svg>
